PathFileType	4	(X/Y/Z)	C:\Users\Willi\Documents\GitHub\processC3D_GUI\exampleC3Dfiles\gait03_R1\marker_experimental.trc
DataRate	CameraRate	NumFrames	NumMarkers	Units	OrigDataRate	OrigDataStartFrame	OrigNumFrames
2.000000e+02	2.000000e+02	12	48	m	2.000000e+02	248	283
Frame#	Time	CLAV			GLAB			LANK			LASI			LELB			LFIN			LFMH			LHEE			LKNE			LMAS			LPEL			LPSI			LSHO			LTHAD			LTHAP			LTHI			LTIAD			LTIAP			LTIB			LTOE			LVMH			LWRA			LWRB			RANK			RASI			RBAK			RELB			RFIN			RFMH			RHEE			RKNE			RMAS			RPEL			RPSI			RSHO			RTHAD			RTHAP			RTHI			RTIAD			RTIAP			RTIB			RTOE			RVMH			RWRA			RWRB			SACR			T10			T2		
		X1	Y1	Z1	X2	Y2	Z2	X3	Y3	Z3	X4	Y4	Z4	X5	Y5	Z5	X6	Y6	Z6	X7	Y7	Z7	X8	Y8	Z8	X9	Y9	Z9	X10	Y10	Z10	X11	Y11	Z11	X12	Y12	Z12	X13	Y13	Z13	X14	Y14	Z14	X15	Y15	Z15	X16	Y16	Z16	X17	Y17	Z17	X18	Y18	Z18	X19	Y19	Z19	X20	Y20	Z20	X21	Y21	Z21	X22	Y22	Z22	X23	Y23	Z23	X24	Y24	Z24	X25	Y25	Z25	X26	Y26	Z26	X27	Y27	Z27	X28	Y28	Z28	X29	Y29	Z29	X30	Y30	Z30	X31	Y31	Z31	X32	Y32	Z32	X33	Y33	Z33	X34	Y34	Z34	X35	Y35	Z35	X36	Y36	Z36	X37	Y37	Z37	X38	Y38	Z38	X39	Y39	Z39	X40	Y40	Z40	X41	Y41	Z41	X42	Y42	Z42	X43	Y43	Z43	X44	Y44	Z44	X45	Y45	Z45	X46	Y46	Z46	X47	Y47	Z47	X48	Y48	Z48
248	1.78500	1.392	1.343	0.157	1.472	1.572	0.178	0.917	0.132	0.049	1.409	0.954	0.060	1.324	1.048	-0.086	1.531	0.800	-0.137	1.013	0.041	0.127	0.858	0.141	0.086	1.224	0.477	0.029	1.351	1.517	0.091	1.307	0.991	0.015	1.238	0.974	0.129	1.346	1.369	-0.029	1.282	0.619	0.004	1.288	0.684	-0.007	1.237	0.643	-0.001	1.064	0.280	0.033	1.070	0.345	0.022	1.019	0.303	0.030	0.993	0.071	0.091	0.992	0.030	0.056	1.497	0.872	-0.105	1.448	0.836	-0.109	1.623	0.065	0.232	1.415	0.940	0.266	1.228	1.314	0.263	1.275	1.051	0.399	1.376	0.731	0.432	1.781	0.082	0.201	1.593	0.020	0.180	1.528	0.490	0.270	1.343	1.501	0.224	1.324	0.986	0.315	1.235	0.963	0.221	1.341	1.368	0.341	1.471	0.630	0.308	1.432	0.683	0.320	1.422	0.621	0.300	1.591	0.243	0.257	1.548	0.291	0.261	1.544	0.226	0.247	1.741	0.082	0.217	1.746	0.052	0.253	1.368	0.808	0.399	1.312	0.804	0.433	1.245	1.003	0.172	1.238	1.162	0.157	1.265	1.392	0.158
249	1.79000	1.400	1.343	0.158	1.480	1.573	0.178	0.922	0.136	0.048	1.418	0.953	0.061	1.331	1.049	-0.085	1.539	0.801	-0.136	1.014	0.041	0.127	0.864	0.147	0.085	1.235	0.476	0.029	1.359	1.518	0.092	1.316	0.991	0.015	1.247	0.974	0.129	1.354	1.370	-0.028	1.292	0.618	0.005	1.298	0.683	-0.006	1.247	0.642	-0.000	1.073	0.282	0.033	1.079	0.346	0.022	1.028	0.306	0.030	0.996	0.072	0.090	0.993	0.031	0.056	1.504	0.873	-0.104	1.455	0.837	-0.108	1.626	0.065	0.232	1.424	0.941	0.267	1.237	1.314	0.264	1.283	1.052	0.400	1.383	0.731	0.433	1.783	0.077	0.201	1.593	0.021	0.180	1.537	0.491	0.270	1.351	1.502	0.224	1.332	0.987	0.315	1.244	0.963	0.221	1.349	1.368	0.342	1.480	0.631	0.308	1.442	0.684	0.320	1.431	0.622	0.300	1.597	0.243	0.257	1.555	0.292	0.262	1.550	0.227	0.248	1.743	0.079	0.217	1.748	0.048	0.253	1.375	0.808	0.400	1.319	0.804	0.434	1.254	1.003	0.171	1.246	1.162	0.157	1.273	1.393	0.159
250	1.79500	1.409	1.344	0.158	1.488	1.573	0.179	0.928	0.140	0.047	1.427	0.953	0.062	1.339	1.049	-0.083	1.546	0.801	-0.135	1.015	0.042	0.127	0.871	0.154	0.084	1.246	0.475	0.029	1.367	1.518	0.092	1.326	0.991	0.015	1.256	0.974	0.129	1.362	1.370	-0.028	1.303	0.617	0.005	1.308	0.682	-0.005	1.257	0.640	0.001	1.081	0.283	0.032	1.089	0.348	0.022	1.037	0.308	0.030	0.999	0.073	0.089	0.994	0.031	0.056	1.512	0.873	-0.103	1.463	0.837	-0.106	1.628	0.065	0.232	1.433	0.942	0.267	1.245	1.314	0.264	1.291	1.052	0.401	1.389	0.731	0.434	1.786	0.073	0.200	1.594	0.021	0.180	1.546	0.492	0.270	1.359	1.503	0.225	1.341	0.989	0.315	1.252	0.964	0.221	1.357	1.368	0.342	1.490	0.633	0.308	1.451	0.686	0.320	1.440	0.623	0.301	1.603	0.243	0.256	1.562	0.293	0.262	1.556	0.228	0.249	1.745	0.075	0.216	1.750	0.046	0.252	1.382	0.808	0.401	1.326	0.804	0.435	1.263	1.004	0.171	1.255	1.162	0.157	1.281	1.393	0.160
251	1.80000	1.417	1.345	0.159	1.495	1.574	0.179	0.935	0.144	0.046	1.436	0.953	0.063	1.347	1.049	-0.082	1.554	0.801	-0.134	1.016	0.042	0.127	0.879	0.160	0.083	1.258	0.473	0.029	1.375	1.519	0.093	1.335	0.990	0.016	1.265	0.974	0.129	1.370	1.370	-0.027	1.313	0.616	0.006	1.318	0.681	-0.004	1.268	0.639	0.002	1.090	0.284	0.032	1.099	0.349	0.022	1.046	0.310	0.030	1.003	0.074	0.089	0.995	0.032	0.056	1.519	0.873	-0.101	1.470	0.837	-0.104	1.629	0.065	0.232	1.441	0.943	0.268	1.253	1.314	0.265	1.300	1.053	0.401	1.396	0.731	0.435	1.788	0.069	0.199	1.594	0.022	0.180	1.555	0.493	0.270	1.367	1.503	0.226	1.349	0.990	0.316	1.261	0.965	0.221	1.365	1.369	0.343	1.499	0.634	0.308	1.460	0.687	0.320	1.449	0.625	0.301	1.609	0.243	0.256	1.568	0.294	0.263	1.561	0.229	0.250	1.747	0.073	0.215	1.751	0.043	0.252	1.389	0.808	0.402	1.334	0.805	0.436	1.272	1.004	0.171	1.264	1.162	0.158	1.289	1.393	0.160
252	1.80500	1.425	1.345	0.160	1.503	1.575	0.180	0.942	0.148	0.045	1.445	0.952	0.064	1.354	1.050	-0.080	1.561	0.802	-0.132	1.017	0.043	0.126	0.887	0.166	0.082	1.269	0.472	0.029	1.383	1.519	0.094	1.345	0.990	0.016	1.274	0.974	0.129	1.379	1.371	-0.026	1.324	0.615	0.006	1.329	0.680	-0.003	1.278	0.638	0.002	1.099	0.286	0.031	1.110	0.350	0.022	1.056	0.312	0.030	1.007	0.075	0.088	0.996	0.033	0.056	1.526	0.873	-0.100	1.477	0.837	-0.103	1.631	0.064	0.232	1.450	0.944	0.269	1.261	1.315	0.266	1.308	1.053	0.402	1.403	0.731	0.436	1.790	0.066	0.199	1.594	0.023	0.181	1.564	0.495	0.270	1.375	1.504	0.226	1.358	0.991	0.316	1.270	0.965	0.221	1.373	1.370	0.344	1.508	0.636	0.308	1.469	0.688	0.321	1.458	0.626	0.301	1.615	0.243	0.256	1.575	0.295	0.263	1.566	0.230	0.251	1.749	0.070	0.215	1.752	0.041	0.252	1.397	0.808	0.403	1.341	0.805	0.437	1.280	1.005	0.171	1.273	1.162	0.158	1.297	1.393	0.161
253	1.81000	1.433	1.346	0.161	1.511	1.575	0.181	0.950	0.153	0.043	1.454	0.952	0.064	1.362	1.050	-0.079	1.568	0.802	-0.131	1.019	0.044	0.126	0.895	0.172	0.081	1.282	0.471	0.029	1.391	1.520	0.094	1.354	0.989	0.016	1.282	0.974	0.129	1.387	1.372	-0.026	1.335	0.614	0.007	1.339	0.679	-0.003	1.289	0.636	0.003	1.109	0.287	0.030	1.120	0.352	0.023	1.066	0.314	0.031	1.011	0.076	0.087	0.998	0.035	0.056	1.533	0.874	-0.098	1.484	0.837	-0.101	1.632	0.064	0.232	1.458	0.945	0.270	1.270	1.315	0.266	1.316	1.054	0.402	1.410	0.732	0.437	1.791	0.062	0.198	1.595	0.023	0.181	1.573	0.496	0.270	1.383	1.505	0.227	1.366	0.993	0.316	1.278	0.966	0.221	1.381	1.370	0.344	1.517	0.637	0.308	1.479	0.690	0.321	1.468	0.628	0.302	1.620	0.244	0.256	1.581	0.295	0.264	1.572	0.231	0.252	1.750	0.068	0.214	1.753	0.039	0.252	1.404	0.809	0.404	1.348	0.806	0.437	1.289	1.005	0.171	1.282	1.163	0.158	1.305	1.394	0.162
254	1.81500	1.441	1.347	0.161	1.519	1.576	0.181	0.958	0.157	0.042	1.463	0.952	0.065	1.369	1.051	-0.077	1.574	0.802	-0.129	1.021	0.045	0.125	0.905	0.179	0.080	1.294	0.470	0.030	1.399	1.521	0.095	1.363	0.989	0.017	1.291	0.974	0.129	1.395	1.372	-0.025	1.346	0.613	0.008	1.350	0.678	-0.002	1.300	0.635	0.004	1.119	0.288	0.030	1.132	0.353	0.023	1.077	0.316	0.031	1.015	0.077	0.087	1.000	0.036	0.056	1.540	0.874	-0.097	1.491	0.838	-0.099	1.634	0.065	0.232	1.467	0.946	0.271	1.278	1.315	0.267	1.324	1.055	0.403	1.417	0.732	0.438	1.793	0.059	0.197	1.595	0.024	0.181	1.582	0.498	0.270	1.391	1.506	0.228	1.375	0.994	0.316	1.287	0.967	0.221	1.389	1.371	0.345	1.526	0.639	0.307	1.488	0.692	0.321	1.477	0.629	0.303	1.625	0.244	0.256	1.588	0.296	0.265	1.576	0.232	0.253	1.752	0.066	0.214	1.754	0.037	0.252	1.411	0.809	0.405	1.355	0.806	0.438	1.298	1.006	0.171	1.291	1.163	0.158	1.313	1.394	0.162
255	1.82000	1.450	1.348	0.162	1.527	1.577	0.182	0.966	0.161	0.041	1.471	0.952	0.066	1.377	1.052	-0.076	1.581	0.802	-0.128	1.024	0.046	0.125	0.914	0.185	0.079	1.307	0.468	0.030	1.407	1.521	0.095	1.373	0.989	0.017	1.300	0.974	0.129	1.403	1.373	-0.024	1.358	0.612	0.008	1.360	0.677	-0.001	1.311	0.633	0.005	1.130	0.290	0.029	1.143	0.354	0.023	1.088	0.318	0.030	1.020	0.079	0.086	1.003	0.038	0.056	1.547	0.874	-0.095	1.498	0.838	-0.098	1.635	0.065	0.232	1.475	0.948	0.271	1.286	1.316	0.268	1.333	1.056	0.404	1.424	0.733	0.439	1.794	0.057	0.197	1.595	0.025	0.181	1.591	0.499	0.270	1.399	1.507	0.228	1.383	0.996	0.317	1.295	0.968	0.221	1.397	1.372	0.346	1.535	0.641	0.308	1.497	0.693	0.322	1.486	0.631	0.304	1.630	0.244	0.256	1.593	0.297	0.265	1.581	0.232	0.254	1.753	0.064	0.213	1.755	0.036	0.252	1.419	0.810	0.406	1.362	0.807	0.439	1.306	1.007	0.171	1.299	1.164	0.159	1.321	1.394	0.163
256	1.82500	1.458	1.349	0.163	1.535	1.578	0.182	0.975	0.165	0.040	1.480	0.952	0.067	1.384	1.053	-0.074	1.588	0.802	-0.126	1.027	0.048	0.124	0.925	0.192	0.077	1.320	0.467	0.030	1.415	1.522	0.096	1.382	0.989	0.017	1.308	0.974	0.129	1.412	1.374	-0.024	1.369	0.611	0.009	1.371	0.676	0.000	1.323	0.632	0.005	1.141	0.291	0.028	1.155	0.355	0.023	1.099	0.320	0.030	1.025	0.080	0.085	1.006	0.040	0.055	1.554	0.874	-0.094	1.505	0.838	-0.096	1.636	0.065	0.232	1.483	0.949	0.272	1.295	1.316	0.268	1.341	1.057	0.404	1.431	0.733	0.440	1.795	0.054	0.196	1.595	0.025	0.182	1.599	0.500	0.270	1.407	1.507	0.229	1.391	0.997	0.317	1.303	0.969	0.221	1.405	1.373	0.346	1.545	0.643	0.308	1.506	0.695	0.322	1.495	0.633	0.305	1.635	0.244	0.256	1.599	0.298	0.266	1.586	0.233	0.254	1.754	0.062	0.213	1.756	0.034	0.252	1.426	0.810	0.407	1.370	0.808	0.440	1.315	1.007	0.170	1.308	1.164	0.159	1.329	1.395	0.163
257	1.83000	1.466	1.349	0.163	1.543	1.578	0.183	0.985	0.169	0.038	1.488	0.952	0.068	1.392	1.053	-0.072	1.594	0.802	-0.124	1.031	0.049	0.124	0.935	0.198	0.076	1.333	0.466	0.030	1.423	1.523	0.096	1.391	0.988	0.018	1.316	0.974	0.129	1.420	1.375	-0.023	1.381	0.610	0.010	1.382	0.675	0.001	1.334	0.630	0.006	1.152	0.292	0.027	1.168	0.356	0.022	1.111	0.322	0.030	1.031	0.082	0.084	1.010	0.042	0.055	1.561	0.874	-0.092	1.511	0.839	-0.094	1.637	0.065	0.232	1.492	0.950	0.273	1.303	1.317	0.269	1.349	1.058	0.405	1.438	0.734	0.441	1.796	0.052	0.195	1.595	0.025	0.182	1.607	0.501	0.271	1.414	1.508	0.229	1.399	0.999	0.317	1.312	0.970	0.221	1.414	1.374	0.347	1.553	0.645	0.308	1.515	0.697	0.323	1.504	0.634	0.306	1.640	0.245	0.256	1.604	0.299	0.266	1.590	0.234	0.255	1.755	0.061	0.212	1.756	0.034	0.252	1.434	0.811	0.408	1.377	0.809	0.441	1.323	1.008	0.170	1.316	1.165	0.159	1.337	1.395	0.164
258	1.83500	1.474	1.350	0.164	1.551	1.579	0.183	0.995	0.173	0.037	1.497	0.952	0.069	1.399	1.054	-0.071	1.600	0.802	-0.122	1.035	0.051	0.123	0.947	0.204	0.075	1.346	0.464	0.030	1.431	1.523	0.097	1.400	0.988	0.018	1.325	0.974	0.129	1.428	1.376	-0.022	1.393	0.609	0.010	1.393	0.674	0.002	1.345	0.629	0.007	1.164	0.293	0.026	1.180	0.357	0.022	1.123	0.324	0.030	1.037	0.085	0.084	1.014	0.044	0.055	1.567	0.874	-0.090	1.518	0.839	-0.092	1.638	0.065	0.232	1.500	0.952	0.274	1.311	1.318	0.269	1.357	1.059	0.406	1.445	0.734	0.442	1.797	0.050	0.195	1.595	0.026	0.182	1.615	0.502	0.271	1.422	1.509	0.230	1.407	1.000	0.317	1.320	0.971	0.221	1.422	1.375	0.347	1.562	0.647	0.308	1.524	0.698	0.323	1.513	0.636	0.308	1.644	0.245	0.256	1.609	0.299	0.267	1.594	0.235	0.255	1.756	0.060	0.212	1.757	0.033	0.252	1.441	0.812	0.409	1.385	0.810	0.442	1.331	1.009	0.170	1.325	1.165	0.159	1.345	1.396	0.164
259	1.84000	1.482	1.351	0.165	1.558	1.580	0.184	1.005	0.177	0.036	1.505	0.952	0.070	1.407	1.055	-0.069	1.606	0.801	-0.121	1.040	0.053	0.122	0.958	0.210	0.074	1.360	0.463	0.030	1.438	1.524	0.097	1.408	0.988	0.019	1.333	0.974	0.129	1.436	1.376	-0.022	1.404	0.608	0.011	1.404	0.674	0.003	1.357	0.627	0.008	1.176	0.294	0.025	1.193	0.358	0.022	1.136	0.326	0.029	1.043	0.087	0.083	1.019	0.047	0.054	1.574	0.874	-0.089	1.524	0.839	-0.090	1.638	0.065	0.232	1.508	0.953	0.275	1.319	1.318	0.270	1.366	1.060	0.406	1.452	0.735	0.443	1.797	0.049	0.194	1.595	0.026	0.182	1.622	0.503	0.271	1.430	1.510	0.231	1.415	1.002	0.318	1.328	0.972	0.221	1.430	1.376	0.348	1.571	0.648	0.308	1.532	0.700	0.324	1.521	0.637	0.309	1.647	0.245	0.256	1.614	0.300	0.267	1.597	0.236	0.256	1.756	0.059	0.211	1.757	0.032	0.252	1.449	0.813	0.410	1.392	0.811	0.442	1.340	1.009	0.170	1.333	1.166	0.160	1.353	1.396	0.165
